<svg width="33" height="33" viewBox="0 0 33 33" fill="none" xmlns="http://www.w3.org/2000/svg">
<path d="M12.2449 21.1667C12.2449 21.903 11.6479 22.5 10.9115 22.5C10.1752 22.5 9.57821 21.903 9.57821 21.1667C9.57821 20.4303 10.1752 19.8333 10.9115 19.8333C11.6479 19.8333 12.2449 20.4303 12.2449 21.1667Z" fill="#F5F9FF" fill-opacity="0.95"/>
<path d="M21.5782 22.5C22.3146 22.5 22.9115 21.903 22.9115 21.1667C22.9115 20.4303 22.3146 19.8333 21.5782 19.8333C20.8418 19.8333 20.2449 20.4303 20.2449 21.1667C20.2449 21.903 20.8418 22.5 21.5782 22.5Z" fill="#F5F9FF" fill-opacity="0.95"/>
<path fill-rule="evenodd" clip-rule="evenodd" d="M12.5782 7.16667C12.5782 5.14162 14.2198 3.5 16.2449 3.5C18.2699 3.5 19.9115 5.14162 19.9115 7.16667C19.9115 8.96405 18.6183 10.4594 16.9115 10.7729V13.8333H24.2449C26.454 13.8333 28.2449 15.6242 28.2449 17.8333V24.5C28.2449 26.7091 26.454 28.5 24.2449 28.5H8.24487C6.03573 28.5 4.24487 26.7091 4.24487 24.5V17.8333C4.24487 15.6242 6.03573 13.8333 8.24487 13.8333H15.5782V10.7729C13.8715 10.4594 12.5782 8.96405 12.5782 7.16667ZM16.2449 5.5C15.3244 5.5 14.5782 6.24619 14.5782 7.16667C14.5782 8.08714 15.3244 8.83333 16.2449 8.83333C17.1653 8.83333 17.9115 8.08714 17.9115 7.16667C17.9115 6.24619 17.1653 5.5 16.2449 5.5ZM8.24487 15.8333C7.1403 15.8333 6.24487 16.7288 6.24487 17.8333V24.5C6.24487 25.6046 7.1403 26.5 8.24487 26.5H24.2449C25.3494 26.5 26.2449 25.6046 26.2449 24.5V17.8333C26.2449 16.7288 25.3494 15.8333 24.2449 15.8333H8.24487Z" fill="#F5F9FF" fill-opacity="0.95"/>
</svg>
