<svg width="33" height="33" viewBox="0 0 33 33" fill="none" xmlns="http://www.w3.org/2000/svg">
<path fill-rule="evenodd" clip-rule="evenodd" d="M9.27812 7.96634C8.99522 7.96634 8.72391 8.07872 8.52387 8.27876C8.32384 8.4788 8.21146 8.75011 8.21146 9.033V23.5245L10.6572 21.0787C10.8572 20.8787 11.1286 20.7663 11.4115 20.7663H24.2114C24.4943 20.7663 24.7656 20.6539 24.9657 20.4539C25.1657 20.2539 25.2781 19.9825 25.2781 19.6997V9.033C25.2781 8.75011 25.1657 8.4788 24.9657 8.27876C24.7656 8.07872 24.4943 7.96634 24.2114 7.96634H9.27812ZM7.01538 6.77026C7.6155 6.17015 8.42943 5.83301 9.27812 5.83301H24.2114C25.0601 5.83301 25.8741 6.17015 26.4742 6.77026C27.0743 7.37038 27.4114 8.18431 27.4114 9.033V19.6997C27.4114 20.5483 27.0743 21.3623 26.4742 21.9624C25.8741 22.5625 25.0601 22.8996 24.2114 22.8996H11.8533L7.89904 26.8539C7.59397 27.159 7.13518 27.2502 6.7366 27.0851C6.33801 26.92 6.07812 26.5311 6.07812 26.0996V9.033C6.07812 8.18431 6.41527 7.37038 7.01538 6.77026Z" fill="#F5F9FF" fill-opacity="0.95"/>
</svg>
