<svg width="30" height="29" viewBox="0 0 30 29" fill="none" xmlns="http://www.w3.org/2000/svg">
<path d="M11.6703 17.1996C11.0609 17.1996 10.5376 17.0659 10.1004 16.7984C9.66583 16.5309 9.33064 16.1615 9.09482 15.6902C8.86165 15.2161 8.74507 14.6706 8.74507 14.0536C8.74507 13.4339 8.8643 12.8871 9.10277 12.413C9.34124 11.9364 9.67775 11.5656 10.1123 11.3008C10.5495 11.0333 11.0662 10.8996 11.6623 10.8996C12.1578 10.8996 12.5964 10.991 12.9779 11.1737C13.3621 11.3538 13.6681 11.6093 13.896 11.9403C14.1239 12.2687 14.2537 12.6527 14.2855 13.0923H12.9103C12.8547 12.7983 12.7222 12.5534 12.5129 12.3574C12.3062 12.1588 12.0293 12.0595 11.6822 12.0595C11.3881 12.0595 11.1298 12.139 10.9072 12.2978C10.6846 12.4541 10.5111 12.6792 10.3865 12.9731C10.2647 13.2671 10.2037 13.6193 10.2037 14.0297C10.2037 14.4455 10.2647 14.803 10.3865 15.1023C10.5084 15.3989 10.6793 15.6279 10.8992 15.7895C11.1218 15.9483 11.3828 16.0278 11.6822 16.0278C11.8942 16.0278 12.0836 15.9881 12.2506 15.9086C12.4202 15.8265 12.5619 15.7087 12.6758 15.5551C12.7898 15.4015 12.8679 15.2148 12.9103 14.995H14.2855C14.2511 15.4267 14.1239 15.8093 13.904 16.143C13.684 16.474 13.3846 16.7335 13.0057 16.9216C12.6268 17.1069 12.1817 17.1996 11.6703 17.1996Z" fill="white"/>
<path d="M18.1298 17.1996C17.5204 17.1996 16.9971 17.0659 16.5599 16.7984C16.1254 16.5309 15.7902 16.1615 15.5544 15.6902C15.3212 15.2161 15.2046 14.6706 15.2046 14.0536C15.2046 13.4339 15.3239 12.8871 15.5623 12.413C15.8008 11.9364 16.1373 11.5656 16.5718 11.3008C17.009 11.0333 17.5257 10.8996 18.1219 10.8996C18.6174 10.8996 19.0559 10.991 19.4375 11.1737C19.8217 11.3538 20.1277 11.6093 20.3556 11.9403C20.5834 12.2687 20.7133 12.6527 20.7451 13.0923H19.3699C19.3142 12.7983 19.1818 12.5534 18.9724 12.3574C18.7658 12.1588 18.4889 12.0595 18.1418 12.0595C17.8477 12.0595 17.5893 12.139 17.3667 12.2978C17.1442 12.4541 16.9706 12.6792 16.8461 12.9731C16.7242 13.2671 16.6633 13.6193 16.6633 14.0297C16.6633 14.4455 16.7242 14.803 16.8461 15.1023C16.968 15.3989 17.1389 15.6279 17.3588 15.7895C17.5814 15.9483 17.8424 16.0278 18.1418 16.0278C18.3537 16.0278 18.5432 15.9881 18.7101 15.9086C18.8797 15.8265 19.0215 15.7087 19.1354 15.5551C19.2493 15.4015 19.3275 15.2148 19.3699 14.995H20.7451C20.7106 15.4267 20.5834 15.8093 20.3635 16.143C20.1436 16.474 19.8442 16.7335 19.4653 16.9216C19.0864 17.1069 18.6412 17.1996 18.1298 17.1996Z" fill="white"/>
<path d="M8.14507 5.19961C5.32842 5.19961 3.04507 7.48296 3.04507 10.2996V17.4996C3.04507 20.3163 5.32842 22.5996 8.14507 22.5996H21.3451C24.1617 22.5996 26.4451 20.3163 26.4451 17.4996V10.2996C26.4451 7.48296 24.1617 5.19961 21.3451 5.19961H8.14507Z" stroke="white" stroke-width="1.8"/>
</svg>
