<svg width="32" height="32" viewBox="0 0 32 32" fill="none" xmlns="http://www.w3.org/2000/svg">
<path d="M15.9999 9.3375C17.4968 9.3375 18.6666 8.1625 18.6666 6.6625C18.6666 5.1875 17.4716 4 15.9999 4C14.5408 4 13.3333 5.1875 13.3333 6.6625C13.3333 8.125 14.5408 9.3375 15.9999 9.3375ZM15.9999 18.6375C17.4968 18.6375 18.6666 17.475 18.6666 16C18.6666 14.5375 17.4716 13.35 15.9999 13.35C14.5408 13.35 13.3333 14.5375 13.3333 16C13.3333 17.45 14.5408 18.6375 15.9999 18.6375ZM15.9999 28C17.4968 28 18.6666 26.825 18.6666 25.3375C18.6666 23.85 17.4716 22.6625 15.9999 22.6625C14.5408 22.6625 13.3333 23.85 13.3333 25.3375C13.3333 26.7875 14.5408 28 15.9999 28Z" fill="#F5F9FF" fill-opacity="0.95"/>
</svg>
