<svg width="33" height="33" viewBox="0 0 33 33" fill="none" xmlns="http://www.w3.org/2000/svg">
<path fill-rule="evenodd" clip-rule="evenodd" d="M25.9168 11.9682C25.9492 11.9721 25.9813 11.9776 26.0132 11.9847C27.4063 12.2942 28.6523 13.0696 29.5453 14.1828C30.4383 15.296 30.9249 16.6805 30.9249 18.1076V19.1502C30.9249 19.8815 30.6344 20.5829 30.1173 21.1C29.6002 21.6171 28.8988 21.9076 28.1675 21.9076H23.7742C23.0429 21.9076 22.3416 21.6171 21.8245 21.1C21.3074 20.5829 21.0169 19.8815 21.0169 19.1502C21.0169 18.9494 20.9371 18.7567 20.7951 18.6147C20.653 18.4727 20.4604 18.3929 20.2596 18.3929H13.2302C13.0294 18.3929 12.8368 18.4727 12.6947 18.6147C12.5527 18.7567 12.4729 18.9494 12.4729 19.1502C12.4729 19.8815 12.1824 20.5829 11.6653 21.1C11.1482 21.6171 10.4469 21.9076 9.71559 21.9076H5.32227C4.59098 21.9076 3.88964 21.6171 3.37255 21.1C2.85545 20.5829 2.56494 19.8815 2.56494 19.1502V18.1079M25.9168 11.9682C19.858 10.8022 13.6325 10.801 7.57329 11.9647C7.54084 11.9686 7.50857 11.9741 7.4766 11.9812C6.08277 12.2909 4.83631 13.0669 3.94324 14.1809C3.05032 15.2948 2.56411 16.6803 2.56494 18.1079M7.70638 12.9574V13.0154L7.79259 13.4034L7.70638 12.9574ZM7.8957 13.9369C6.95226 14.15 6.10888 14.677 5.50373 15.4319C4.89544 16.1907 4.56427 17.1343 4.56494 18.1069L4.56494 19.1502C4.56494 19.3511 4.64473 19.5437 4.78676 19.6857C4.92879 19.8278 5.12141 19.9076 5.32227 19.9076H9.71559C9.91645 19.9076 10.1091 19.8278 10.2511 19.6857C10.3931 19.5437 10.4729 19.3511 10.4729 19.1502C10.4729 18.4189 10.7634 17.7176 11.2805 17.2005C11.7976 16.6834 12.499 16.3929 13.2302 16.3929H20.2596C20.9909 16.3929 21.6922 16.6834 22.2093 17.2005C22.7264 17.7176 23.0169 18.4189 23.0169 19.1502C23.0169 19.3511 23.0967 19.5437 23.2387 19.6857C23.3807 19.8278 23.5734 19.9076 23.7742 19.9076H28.1675C28.3684 19.9076 28.561 19.8278 28.7031 19.6857C28.8451 19.5437 28.9249 19.3511 28.9249 19.1502V18.1075C28.9249 17.1355 28.5934 16.1925 27.9852 15.4343C27.3888 14.6909 26.5614 14.1686 25.6349 13.9498C25.621 13.9477 25.6071 13.9453 25.5933 13.9427C19.7487 12.8106 13.7412 12.8095 7.89615 13.9392L7.8957 13.9369Z" fill="white" fill-opacity="0.98"/>
</svg>
