<svg width="26" height="25" viewBox="0 0 26 25" fill="none" xmlns="http://www.w3.org/2000/svg">
<path d="M2.39087 12.4997C2.39087 6.74671 7.05457 2.08301 12.8075 2.08301C18.5605 2.08301 23.2242 6.74671 23.2242 12.4997C23.2242 18.2526 18.5605 22.9163 12.8075 22.9163C7.05457 22.9163 2.39087 18.2526 2.39087 12.4997ZM12.8075 3.5365C7.85731 3.5365 3.84436 7.54945 3.84436 12.4997C3.84436 17.4499 7.85731 21.4629 12.8075 21.4629C17.7578 21.4629 21.7707 17.4499 21.7707 12.4997C21.7707 7.54945 17.7578 3.5365 12.8075 3.5365Z" fill="white"/>
<path d="M10.6273 8.13921C10.6273 6.93508 11.6034 5.95898 12.8075 5.95898C14.0117 5.95898 14.9878 6.93508 14.9878 8.13921C14.9878 9.34334 14.0117 10.3194 12.8075 10.3194C11.6034 10.3194 10.6273 9.34334 10.6273 8.13921ZM12.8075 7.41247C12.4061 7.41247 12.0808 7.73782 12.0808 8.13921C12.0808 8.5406 12.4061 8.86595 12.8075 8.86595C13.2089 8.86595 13.5343 8.5406 13.5343 8.13921C13.5343 7.73782 13.2089 7.41247 12.8075 7.41247Z" fill="#FC5D5B"/>
<path d="M10.6273 16.8601C10.6273 15.656 11.6034 14.6799 12.8075 14.6799C14.0117 14.6799 14.9878 15.656 14.9878 16.8601C14.9878 18.0643 14.0117 19.0404 12.8075 19.0404C11.6034 19.0404 10.6273 18.0643 10.6273 16.8601ZM12.8075 16.1334C12.4061 16.1334 12.0808 16.4587 12.0808 16.8601C12.0808 17.2615 12.4061 17.5869 12.8075 17.5869C13.2089 17.5869 13.5343 17.2615 13.5343 16.8601C13.5343 16.4587 13.2089 16.1334 12.8075 16.1334Z" fill="#38C674"/>
<path d="M6.26684 12.4997C6.26684 11.2955 7.24294 10.3194 8.44707 10.3194C9.6512 10.3194 10.6273 11.2955 10.6273 12.4997C10.6273 13.7038 9.6512 14.6799 8.44707 14.6799C7.24294 14.6799 6.26684 13.7038 6.26684 12.4997ZM8.44707 11.7729C8.04568 11.7729 7.72033 12.0983 7.72033 12.4997C7.72033 12.9011 8.04568 13.2264 8.44707 13.2264C8.84846 13.2264 9.17381 12.9011 9.17381 12.4997C9.17381 12.0983 8.84846 11.7729 8.44707 11.7729Z" fill="white"/>
<path d="M14.9878 12.4997C14.9878 11.2955 15.9639 10.3194 17.168 10.3194C18.3721 10.3194 19.3482 11.2955 19.3482 12.4997C19.3482 13.7038 18.3721 14.6799 17.168 14.6799C15.9639 14.6799 14.9878 13.7038 14.9878 12.4997ZM17.168 11.7729C16.7666 11.7729 16.4413 12.0983 16.4413 12.4997C16.4413 12.9011 16.7666 13.2264 17.168 13.2264C17.5694 13.2264 17.8947 12.9011 17.8947 12.4997C17.8947 12.0983 17.5694 11.7729 17.168 11.7729Z" fill="#FFBD06"/>
<path d="M12.0808 22.1896C12.0808 21.7882 12.4062 21.4629 12.8075 21.4629H22.4975C22.8988 21.4629 23.2242 21.7882 23.2242 22.1896C23.2242 22.591 22.8988 22.9163 22.4975 22.9163H12.8075C12.4062 22.9163 12.0808 22.591 12.0808 22.1896Z" fill="white"/>
</svg>
