<svg width="33" height="33" viewBox="0 0 33 33" fill="none" xmlns="http://www.w3.org/2000/svg">
<path fill-rule="evenodd" clip-rule="evenodd" d="M17.534 4.78932C17.407 4.78932 17.2812 4.81434 17.1639 4.86294C17.0465 4.91155 16.9399 4.98279 16.8501 5.0726C16.7603 5.16241 16.6891 5.26903 16.6405 5.38637C16.5918 5.50371 16.5668 5.62947 16.5668 5.75648V15.8337C16.5668 16.2817 16.2037 16.6448 15.7557 16.6448C15.3077 16.6448 14.9445 16.2817 14.9445 15.8337V8.12758C14.9445 7.87108 14.8426 7.62508 14.6612 7.4437C14.4798 7.26232 14.2338 7.16042 13.9773 7.16042C13.7208 7.16042 13.4748 7.26232 13.2935 7.4437C13.1121 7.62508 13.0102 7.87108 13.0102 8.12758L13.0102 17.0192C13.0102 17.3473 12.8125 17.6431 12.5094 17.7686C12.2063 17.8942 11.8574 17.8248 11.6254 17.5928L9.883 15.8504C9.66189 15.6296 9.37306 15.4888 9.06295 15.4507C8.75269 15.4126 8.4386 15.4792 8.17055 15.6401C7.95452 15.7696 7.79729 15.9784 7.73275 16.2219C7.66821 16.4654 7.7012 16.7244 7.82471 16.9439C10.0613 20.9195 11.3418 23.1503 11.6932 23.6898C11.7696 23.8074 11.8468 23.9256 11.9238 24.0428C12.4978 24.9141 13.2791 25.6293 14.1977 26.1241C15.1159 26.6188 16.1426 26.8778 17.1855 26.878C17.1863 26.878 17.187 26.878 17.1877 26.878H19.3123C20.9837 26.878 22.5867 26.214 23.7686 25.0321C24.9505 23.8503 25.6145 22.2473 25.6145 20.5759V10.4987C25.6145 10.2422 25.5126 9.99618 25.3312 9.8148C25.1498 9.63342 24.9038 9.53152 24.6473 9.53152C24.3908 9.53152 24.1448 9.63342 23.9634 9.8148C23.7828 9.99539 23.681 10.24 23.6801 10.4953C23.6801 10.4965 23.6801 10.4976 23.6801 10.4987V15.8337C23.6801 16.2817 23.317 16.6448 22.869 16.6448C22.421 16.6448 22.0578 16.2817 22.0578 15.8337V10.4987C22.0578 10.4969 22.0578 10.495 22.0578 10.4932L22.0578 8.12758C22.0578 7.87108 21.9559 7.62508 21.7745 7.4437C21.5932 7.26232 21.3472 7.16042 21.0906 7.16042C20.8341 7.16042 20.5881 7.26232 20.4068 7.4437C20.2402 7.61023 20.1407 7.83127 20.1255 8.06486C20.127 8.04264 20.1269 8.08082 20.1266 8.20236C20.1265 8.24204 20.1264 8.29061 20.1264 8.34887L20.1238 12.1023L20.1238 12.1377L20.1237 12.1415L20.1235 12.1526C20.1235 12.1527 20.1235 12.1526 20.1235 12.1526L20.1235 15.8337C20.1235 16.2817 19.7603 16.6448 19.3123 16.6448C18.8643 16.6448 18.5012 16.2817 18.5012 15.8337V5.75648C18.5012 5.62947 18.4761 5.50371 18.4275 5.38637C18.3789 5.26903 18.3077 5.16241 18.2179 5.0726C18.1281 4.98279 18.0214 4.91155 17.9041 4.86294C17.7868 4.81434 17.661 4.78932 17.534 4.78932ZM20.1237 12.1261C20.1237 12.128 20.1238 12.1278 20.1237 12.1261V12.1261ZM20.1233 5.72557C20.1194 5.39603 20.0526 5.07018 19.9264 4.76553C19.7962 4.45136 19.6055 4.16589 19.365 3.92544C19.1246 3.68498 18.8391 3.49424 18.5249 3.36411C18.2108 3.23397 17.874 3.16699 17.534 3.16699C17.1939 3.16699 16.8572 3.23397 16.543 3.36411C16.2289 3.49424 15.9434 3.68498 15.7029 3.92544C15.4625 4.16589 15.2717 4.45136 15.1416 4.76553C15.0154 5.07017 14.9486 5.39603 14.9447 5.72556C14.6401 5.6029 14.3121 5.53809 13.9773 5.53809C13.2906 5.53809 12.6319 5.81091 12.1463 6.29654C11.6607 6.78216 11.3878 7.44081 11.3878 8.12758L11.3878 15.0609L11.0298 14.7029C10.5528 14.2264 9.92991 13.9226 9.2607 13.8404C8.59158 13.7583 7.91419 13.902 7.3361 14.2488M20.1233 5.72557C20.4279 5.6029 20.7559 5.53809 21.0906 5.53809C21.7774 5.53809 22.4361 5.81091 22.9217 6.29654C23.4 6.77487 23.6719 7.42106 23.68 8.09666C23.9845 7.974 24.3126 7.90919 24.6473 7.90919C25.3341 7.90919 25.9927 8.18201 26.4783 8.66764C26.964 9.15326 27.2368 9.81191 27.2368 10.4987V20.5759C27.2368 22.6776 26.4019 24.6932 24.9158 26.1793C23.4296 27.6654 21.414 28.5003 19.3123 28.5003H17.1879C17.1879 28.5003 17.188 28.5003 17.1879 28.5003H16.9412C16.9018 28.5003 16.863 28.4975 16.8251 28.4921C15.6382 28.4379 14.477 28.1174 13.4283 27.5524C12.2729 26.93 11.2902 26.0304 10.5684 24.9343C10.4899 24.8148 10.4112 24.6944 10.3332 24.5744C9.94418 23.9769 8.62853 21.6816 6.41079 17.7394C6.08011 17.1517 5.99178 16.4581 6.16458 15.8062C6.33736 15.1544 6.75782 14.5956 7.3361 14.2488" fill="#F5F9FF" fill-opacity="0.95"/>
</svg>
