<svg width="32" height="32" viewBox="0 0 32 32" fill="none" xmlns="http://www.w3.org/2000/svg">
<path fill-rule="evenodd" clip-rule="evenodd" d="M9.06676 10.6668C9.06676 8.89952 10.4994 7.46683 12.2668 7.46683C14.0341 7.46683 15.4668 8.89952 15.4668 10.6668C15.4668 12.4341 14.0341 13.8668 12.2668 13.8668C10.4994 13.8668 9.06676 12.4341 9.06676 10.6668ZM12.2668 5.3335C9.32124 5.3335 6.93343 7.72131 6.93343 10.6668C6.93343 13.6123 9.32124 16.0002 12.2668 16.0002C15.2123 16.0002 17.6001 13.6123 17.6001 10.6668C17.6001 7.72131 15.2123 5.3335 12.2668 5.3335ZM8.00008 18.1335C6.58559 18.1335 5.22904 18.6954 4.22885 19.6956C3.22865 20.6958 2.66675 22.0523 2.66675 23.4668V25.6001C2.66675 26.1892 3.14431 26.6668 3.73341 26.6668C4.32252 26.6668 4.80008 26.1892 4.80008 25.6001V23.4668C4.80008 22.6181 5.13722 21.8042 5.73734 21.2041C6.33746 20.6039 7.15139 20.2668 8.00008 20.2668H16.5334C17.3821 20.2668 18.196 20.6039 18.7962 21.2041C19.3963 21.8042 19.7334 22.6181 19.7334 23.4668V25.6001C19.7334 26.1892 20.211 26.6668 20.8001 26.6668C21.3892 26.6668 21.8667 26.1892 21.8667 25.6001V23.4668C21.8667 22.0523 21.3048 20.6958 20.3046 19.6956C19.3045 18.6954 17.9479 18.1335 16.5334 18.1335H8.00008ZM22.9673 19.0722C23.1146 18.5018 23.6963 18.1588 24.2667 18.3061C25.4109 18.6015 26.4246 19.2686 27.1486 20.2025C27.8725 21.1364 28.2659 22.2844 28.2667 23.4661V25.6002C28.2667 26.1893 27.7892 26.6669 27.2001 26.6669C26.611 26.6669 26.1334 26.1893 26.1334 25.6002V23.4677C26.1328 22.7588 25.8968 22.0698 25.4625 21.5095C25.0281 20.9492 24.4199 20.5489 23.7334 20.3717C23.163 20.2244 22.82 19.6426 22.9673 19.0722ZM19.998 5.50545C19.4273 5.35933 18.8462 5.70352 18.7001 6.27421C18.554 6.8449 18.8981 7.426 19.4688 7.57212C20.1572 7.74836 20.7673 8.14868 21.2029 8.70997C21.6386 9.27125 21.8751 9.96158 21.8751 10.6721C21.8751 11.3827 21.6386 12.073 21.2029 12.6343C20.7673 13.1956 20.1572 13.5959 19.4688 13.7721C18.8981 13.9182 18.554 14.4993 18.7001 15.07C18.8462 15.6407 19.4273 15.9849 19.998 15.8388C21.1452 15.545 22.162 14.8778 22.8882 13.9424C23.6143 13.0069 24.0084 11.8563 24.0084 10.6721C24.0084 9.48789 23.6143 8.33734 22.8882 7.40187C22.162 6.46639 21.1452 5.79919 19.998 5.50545Z" fill="#424242" fill-opacity="0.95"/>
</svg>
