<svg width="33" height="33" viewBox="0 0 33 33" fill="none" xmlns="http://www.w3.org/2000/svg">
<path d="M29.2779 11.1667C29.2779 9.14162 27.6363 7.5 25.6113 7.5H8.41154C6.3865 7.5 4.74487 9.14162 4.74487 11.1667V21.3537C4.74487 23.3788 6.38649 25.0204 8.41154 25.0204H12.5113C13.0636 25.0204 13.5113 24.5727 13.5113 24.0204C13.5113 23.4681 13.0636 23.0204 12.5113 23.0204H8.41154C7.49106 23.0204 6.74487 22.2742 6.74487 21.3537L6.74487 11.1667C6.74487 10.2462 7.49106 9.5 8.41154 9.5L25.6113 9.5C26.5318 9.5 27.2779 10.2462 27.2779 11.1667V21.3537C27.2779 22.2742 26.5318 23.0204 25.6113 23.0204H22.0113C21.4591 23.0204 21.0113 23.4681 21.0113 24.0204C21.0113 24.5727 21.4591 25.0204 22.0113 25.0204H25.6113C27.6363 25.0204 29.2779 23.3788 29.2779 21.3537V11.1667Z" fill="#F5F9FF" fill-opacity="0.95"/>
<path d="M11.6884 18.2427C11.2067 18.7244 11.2067 19.5055 11.6884 19.9873C12.1702 20.469 12.9513 20.469 13.433 19.9873L15.9532 17.4671V26.5853C15.9532 27.2666 16.5055 27.8189 17.1868 27.8189C17.8681 27.8189 18.4204 27.2666 18.4204 26.5853L18.4204 17.4671L20.9406 19.9873C21.4224 20.469 22.2034 20.469 22.6852 19.9873C23.167 19.5055 23.167 18.7244 22.6852 18.2427L18.0591 13.6166C17.8278 13.3852 17.514 13.2552 17.1868 13.2552C16.8596 13.2552 16.5459 13.3852 16.3145 13.6166L11.6884 18.2427Z" fill="#F5F9FF" fill-opacity="0.95"/>
</svg>
