<svg width="32" height="32" viewBox="0 0 32 32" fill="none" xmlns="http://www.w3.org/2000/svg">
<path d="M15.9889 27.453C22.2643 27.453 27.444 22.2733 27.444 16.009C27.444 9.74463 22.2533 4.56494 15.9779 4.56494C9.71354 4.56494 4.54492 9.74463 4.54492 16.009C4.54492 22.2733 9.72461 27.453 15.9889 27.453ZM15.9889 25.173C10.9089 25.173 6.84701 21.089 6.84701 16.009C6.84701 10.9289 10.9089 6.85596 15.9779 6.85596C21.0579 6.85596 25.1419 10.9289 25.153 16.009C25.1641 21.089 21.069 25.173 15.9889 25.173ZM16 20.3475C18.4017 20.3475 20.3385 18.4106 20.3385 15.9979C20.3385 13.6073 18.4017 11.6593 16 11.6593C13.5872 11.6593 11.6504 13.6073 11.6504 15.9979C11.6504 18.4106 13.5872 20.3475 16 20.3475Z" fill="#424242"/>
</svg>
