<svg width="24" height="24" viewBox="0 0 24 24" fill="none" xmlns="http://www.w3.org/2000/svg">
<path fill-rule="evenodd" clip-rule="evenodd" d="M4.70064 3.19511C5.09446 3.12491 5.50042 3.18251 5.85918 3.35949L5.86708 3.36339L20.1276 10.6077C20.3434 10.7175 20.5251 10.8851 20.6517 11.0915C20.777 11.2958 20.8439 11.5304 20.8453 11.7698C20.8454 11.7723 20.8454 11.7748 20.8454 11.7773L20.8454 11.78C20.845 12.0214 20.7779 12.2581 20.6517 12.4639C20.5251 12.6704 20.3438 12.8378 20.1279 12.9476L5.8592 20.2058C5.50045 20.3827 5.09446 20.4403 4.70064 20.3701C4.30681 20.2999 3.94576 20.1056 3.67024 19.8155C3.39473 19.5255 3.2192 19.155 3.16931 18.758C3.11941 18.3611 3.19777 17.9587 3.39293 17.6095C3.39776 17.6008 3.40276 17.5923 3.40793 17.5838L6.96159 11.7777L3.40823 5.98186C3.40295 5.97326 3.39785 5.96455 3.39293 5.95574C3.19777 5.60654 3.11941 5.20407 3.16931 4.80716C3.2192 4.41025 3.39473 4.0397 3.67024 3.74966C3.94576 3.45963 4.30681 3.26531 4.70064 3.19511ZM18.3227 11.0273L5.19267 4.7033C5.12163 4.66901 5.04156 4.65798 4.96386 4.67184C4.88509 4.68587 4.81288 4.72474 4.75778 4.78275C4.70268 4.84075 4.66757 4.91486 4.65759 4.99424C4.64807 5.06996 4.66189 5.14668 4.69705 5.21421L8.43613 11.0273H18.3227ZM8.39896 12.5273H18.3232L5.19253 18.862C5.12153 18.8962 5.04151 18.9072 4.96386 18.8934C4.88509 18.8793 4.81288 18.8405 4.75778 18.7825C4.70268 18.7244 4.66757 18.6503 4.65759 18.571C4.64807 18.4952 4.66192 18.4184 4.69715 18.3508L8.39896 12.5273Z" fill="white" fill-opacity="0.95"/>
</svg>
