<svg width="25" height="25" viewBox="0 0 25 25" fill="none" xmlns="http://www.w3.org/2000/svg">
<path d="M19.622 7.69994H13.7554C13.1896 7.69994 12.6469 7.92471 12.2469 8.32478C11.8468 8.72486 11.622 9.26748 11.622 9.83328V12.4999M19.622 7.69994L16.4221 10.9M19.622 7.69994L16.4221 4.5M17.4887 14.1001V19.4334C17.4887 19.7163 17.3763 19.9876 17.1763 20.1877C16.9762 20.3877 16.7049 20.5001 16.422 20.5001H6.82204C6.53914 20.5001 6.26783 20.3877 6.06779 20.1877C5.86775 19.9876 5.75537 19.7163 5.75537 19.4334V10.9001C5.75537 10.6172 5.86775 10.3459 6.06779 10.1458C6.26783 9.94581 6.53914 9.83343 6.82204 9.83343H8.42204" stroke="white" stroke-width="1.5" stroke-linecap="round" stroke-linejoin="round"/>
</svg>
