<svg width="20" height="20" viewBox="0 0 20 20" fill="none" xmlns="http://www.w3.org/2000/svg">
<path d="M9.99993 14.3936C9.62338 14.3936 9.31812 14.6988 9.31812 15.0754C9.31812 15.4519 9.62338 15.7572 9.99993 15.7572H10.0068C10.3833 15.7572 10.6886 15.4519 10.6886 15.0754C10.6886 14.6988 10.3833 14.3936 10.0068 14.3936H9.99993Z" fill="#36B37E"/>
<path d="M8.09097 13.1764C8.60078 12.6767 9.28619 12.3968 10.0001 12.3968C10.7139 12.3968 11.3993 12.6767 11.9092 13.1764C12.1781 13.44 12.6098 13.4357 12.8733 13.1668C13.1369 12.8979 13.1326 12.4662 12.8637 12.2026C12.099 11.4531 11.0709 11.0332 10.0001 11.0332C8.92926 11.0332 7.90114 11.4531 7.13643 12.2026C6.86751 12.4662 6.8632 12.8979 7.12679 13.1668C7.39038 13.4357 7.82206 13.44 8.09097 13.1764Z" fill="#36B37E"/>
<path d="M5.7045 10.7896C6.85156 9.66529 8.39374 9.03551 9.99995 9.03551C11.6062 9.03551 13.1483 9.66529 14.2954 10.7896C14.5643 11.0532 14.996 11.0489 15.2596 10.78C15.5232 10.5111 15.5189 10.0794 15.2499 9.8158C13.848 8.4416 11.9631 7.67188 9.99995 7.67188C8.03681 7.67188 6.15192 8.4416 4.74996 9.8158C4.48104 10.0794 4.47672 10.5111 4.74031 10.78C5.0039 11.0489 5.43558 11.0532 5.7045 10.7896Z" fill="#36B37E"/>
<path d="M10 5.53063C7.65204 5.53063 5.38644 6.39601 3.63637 7.96132C3.3557 8.21236 2.92467 8.18834 2.67363 7.90767C2.42259 7.627 2.44661 7.19596 2.72728 6.94492C4.72736 5.156 7.31661 4.16699 10 4.16699C12.6834 4.16699 15.2726 5.156 17.2727 6.94492C17.5534 7.19596 17.5774 7.627 17.3264 7.90767C17.0753 8.18834 16.6443 8.21236 16.3636 7.96132C14.6136 6.39601 12.348 5.53063 10 5.53063Z" fill="#36B37E"/>
</svg>
