<svg width="18" height="19" viewBox="0 0 18 19" fill="none" xmlns="http://www.w3.org/2000/svg">
<g clip-path="url(#clip0_3112_14742)">
<mask id="mask0_3112_14742" style="mask-type:alpha" maskUnits="userSpaceOnUse" x="0" y="9" width="24" height="16">
<rect y="9.5" width="24" height="15" fill="#C4C4C4"/>
</mask>
<g mask="url(#mask0_3112_14742)">
<path d="M9.00006 1.25C7.14279 1.25 5.62506 2.76773 5.62506 4.625V10.25C5.62506 12.1073 7.14279 13.625 9.00006 13.625C10.8573 13.625 12.3751 12.1073 12.3751 10.25V4.625C12.3751 2.76773 10.8573 1.25 9.00006 1.25ZM3.92877 8.36694C3.77971 8.36927 3.63767 8.43067 3.53385 8.53765C3.43003 8.64463 3.37292 8.78844 3.37506 8.9375V10.25C3.37506 13.1602 5.60032 15.563 8.43756 15.8464V17.5625C8.4365 17.637 8.45027 17.711 8.47807 17.7802C8.50586 17.8494 8.54713 17.9123 8.59947 17.9654C8.65181 18.0185 8.71417 18.0607 8.78294 18.0894C8.85171 18.1182 8.92551 18.133 9.00006 18.133C9.0746 18.133 9.14841 18.1182 9.21718 18.0894C9.28594 18.0607 9.34831 18.0185 9.40065 17.9654C9.45298 17.9123 9.49425 17.8494 9.52205 17.7802C9.54984 17.711 9.56361 17.637 9.56256 17.5625V15.8464C12.3998 15.563 14.6251 13.1602 14.6251 10.25V8.9375C14.6261 8.86296 14.6123 8.78896 14.5845 8.71979C14.5567 8.65062 14.5155 8.58766 14.4631 8.53458C14.4108 8.4815 14.3484 8.43935 14.2797 8.41057C14.2109 8.3818 14.1371 8.36699 14.0626 8.36699C13.988 8.36699 13.9142 8.3818 13.8454 8.41057C13.7767 8.43935 13.7143 8.4815 13.662 8.53458C13.6096 8.58766 13.5684 8.65062 13.5406 8.71979C13.5128 8.78896 13.499 8.86296 13.5001 8.9375V10.25C13.5001 12.7195 11.5274 14.7105 9.06671 14.7463C9.04169 14.7432 9.01649 14.7417 8.99127 14.7419C8.9707 14.7423 8.95016 14.7437 8.92975 14.7463C6.47073 14.7086 4.50006 12.7183 4.50006 10.25V8.9375C4.50114 8.86221 4.48709 8.78747 4.45876 8.71772C4.43042 8.64796 4.38837 8.5846 4.33509 8.53139C4.28182 8.47818 4.2184 8.43621 4.14861 8.40796C4.07881 8.37972 4.00405 8.36577 3.92877 8.36694Z" fill="#2D8CFF"/>
</g>
</g>
<defs>
<clipPath id="clip0_3112_14742">
<rect width="18" height="18" fill="white" transform="translate(0 0.5)"/>
</clipPath>
</defs>
</svg>
