<svg width="33" height="33" viewBox="0 0 33 33" fill="none" xmlns="http://www.w3.org/2000/svg">
<path fill-rule="evenodd" clip-rule="evenodd" d="M22.6893 14.8934V11.6667C22.6893 9.91776 21.2716 8.5 19.5227 8.5H7.91154C6.16264 8.5 4.74487 9.91776 4.74487 11.6667V22.2222C4.74487 23.9711 6.16264 25.3889 7.91154 25.3889H19.5227C21.2716 25.3889 22.6893 23.9711 22.6893 22.2222V18.9957L28.4091 23.0813C28.7309 23.3111 29.1541 23.3418 29.5057 23.1609C29.8572 22.98 30.0782 22.6177 30.0782 22.2223V11.6668C30.0782 11.2714 29.8572 10.9091 29.5057 10.7282C29.1541 10.5473 28.7309 10.578 28.4091 10.8078L22.6893 14.8934ZM6.85598 11.6667C6.85598 11.0837 7.32857 10.6111 7.91154 10.6111H19.5227C20.1056 10.6111 20.5782 11.0837 20.5782 11.6667V22.2222C20.5782 22.8052 20.1056 23.2778 19.5227 23.2778H7.91154C7.32857 23.2778 6.85598 22.8052 6.85598 22.2222V11.6667ZM27.9671 20.1712L23.4498 16.9446L27.9671 13.7179V20.1712Z" fill="#F5F9FF" fill-opacity="0.95"/>
</svg>
